<svg width="170" height="172" viewBox="0 0 170 172" fill="none" xmlns="http://www.w3.org/2000/svg">
<path fill-rule="evenodd" clip-rule="evenodd" d="M76.9219 7.39125C81.2222 3.86781 85.4297 0.282501 85.4297 0.282501C88.0216 2.78844 90.6547 5.24281 93.3394 7.64563C99.1419 7.30531 106.034 8.66656 111.727 9.79406C115.955 6.62125 119.588 3.72 119.588 3.72C121.362 6.94438 123.094 10.1859 124.782 13.4584C127.003 14.8919 130.925 17.8619 132.589 19.7972C135.144 18.7586 138.992 17.3699 139.848 17.0607C139.922 17.0343 139.973 17.0157 140 17.0059C139.866 17.3841 139.732 17.7635 139.598 18.1439C136.574 26.712 133.393 35.7276 125.714 40.0097C113.291 21.4644 56.785 19.5634 44.6266 40.1197C38.3244 35.6453 35.3066 28.7297 32.1051 21.3931C31.4229 19.8299 30.7324 18.2476 30 16.6656C30.0437 16.6778 30.5277 16.8914 31.2743 17.221C32.642 17.8246 34.891 18.8174 36.93 19.6734C39.6319 17.1125 42.6775 15.1772 45.7197 13.4447C47.7409 9.935 50.9997 3.95375 50.9997 3.95375C50.9997 3.95375 54.7947 7.19188 59.1431 10.1309C63.8353 8.30219 72.4978 7.25031 76.9219 7.39125ZM44.3619 61.8L34.3141 35.8022L34.3175 35.8056C39.5459 42.6291 44.5062 47.6066 51.8797 51.8141C55.5337 53.6394 63.6084 55.0178 63.6084 55.0178L85.1822 43.3613L106.67 55.2688C106.67 55.2688 114.831 53.9934 118.375 51.9172C123.369 48.9988 131.465 43.5572 136.442 35.6613C136.442 35.6613 130.244 51.2194 125.662 62.2847C106.275 88.1038 61.7831 86.4022 44.3619 61.8ZM9.792 124.925V144.125C9.792 145.533 9.344 146.717 8.448 147.677C7.552 148.573 6.368 149.021 4.896 149.021C3.488 149.021 2.304 148.573 1.344 147.677C0.448 146.717 0 145.533 0 144.125V124.925V101.309V78.845C0 77.373 0.448 76.189 1.344 75.293C2.304 74.397 3.488 73.949 4.896 73.949C6.368 73.949 7.552 74.397 8.448 75.293C9.344 76.189 9.792 77.373 9.792 78.845V101.309V102.328C11.2171 100.927 12.8491 99.7232 14.688 98.717C18.08 96.861 21.888 95.933 26.112 95.933C30.528 95.933 34.464 96.893 37.92 98.813C41.44 100.669 44.192 103.421 46.176 107.069C48.224 110.717 49.248 115.197 49.248 120.509V144.125C49.248 145.533 48.768 146.717 47.808 147.677C46.912 148.573 45.76 149.021 44.352 149.021C42.944 149.021 41.76 148.573 40.8 147.677C39.904 146.717 39.456 145.533 39.456 144.125V120.509C39.456 116.861 38.784 113.885 37.44 111.581C36.096 109.277 34.272 107.581 31.968 106.493C29.728 105.341 27.136 104.765 24.192 104.765C21.504 104.765 19.072 105.309 16.896 106.397C14.72 107.485 12.992 108.957 11.712 110.813C10.432 112.605 9.792 114.685 9.792 117.053V124.925ZM66.8753 169.949C67.8353 170.909 69.0192 171.389 70.4272 171.389C71.8992 171.389 73.0833 170.909 73.9792 169.949C74.8753 169.053 75.3232 167.901 75.3232 166.493V140.573C77.5632 143.261 80.2513 145.405 83.3873 147.005C86.5872 148.541 90.0752 149.309 93.8512 149.309C98.5233 149.309 102.715 148.157 106.427 145.853C110.139 143.485 113.051 140.317 115.163 136.349C117.339 132.317 118.427 127.773 118.427 122.717C118.427 117.661 117.243 113.117 114.875 109.085C112.571 105.053 109.435 101.885 105.467 99.581C101.499 97.213 96.9873 96.029 91.9313 96.029C86.9392 96.029 82.4593 97.213 78.4912 99.581C74.5232 101.885 71.3873 105.053 69.0833 109.085C66.7793 113.117 65.5953 117.661 65.5312 122.717V166.493C65.5312 167.901 65.9792 169.053 66.8753 169.949ZM100.667 138.365C98.1073 139.901 95.1953 140.669 91.9313 140.669C88.7313 140.669 85.8193 139.901 83.1953 138.365C80.6353 136.765 78.6192 134.621 77.1472 131.933C75.6752 129.181 74.9392 126.109 74.9392 122.717C74.9392 119.261 75.6752 116.189 77.1472 113.501C78.6192 110.749 80.6353 108.605 83.1953 107.069C85.8193 105.469 88.7313 104.669 91.9313 104.669C95.1953 104.669 98.1073 105.469 100.667 107.069C103.227 108.605 105.243 110.749 106.715 113.501C108.251 116.189 109.019 119.261 109.019 122.717C109.019 126.109 108.251 129.181 106.715 131.933C105.243 134.621 103.227 136.765 100.667 138.365ZM163.29 148.637C163.866 148.829 164.474 148.925 165.114 148.925C166.394 148.925 167.418 148.541 168.186 147.773C169.018 147.005 169.434 146.077 169.434 144.989C169.498 143.837 169.05 142.685 168.09 141.533L152.869 123.316L167.322 104.381C168.218 103.229 168.666 102.045 168.666 100.829C168.73 99.613 168.41 98.589 167.706 97.757C167.002 96.861 165.946 96.413 164.538 96.413C163.834 96.413 163.194 96.541 162.618 96.797C162.042 96.989 161.498 97.405 160.986 98.045L146.864 116.816L131.13 98.045C130.234 96.957 129.018 96.413 127.482 96.413C126.074 96.413 125.018 96.829 124.314 97.661C123.61 98.493 123.29 99.517 123.354 100.733C123.418 101.885 123.866 102.973 124.698 103.997L140.516 122.724L125.658 141.341C124.762 142.493 124.314 143.645 124.314 144.797C124.314 145.949 124.666 146.941 125.37 147.773C126.138 148.541 127.162 148.925 128.442 148.925C129.786 148.925 130.938 148.413 131.898 147.389L146.428 129.113L161.658 147.389C162.17 148.029 162.714 148.445 163.29 148.637Z" fill="url(#paint0_linear_304_2)"/>
<defs>
<linearGradient id="paint0_linear_304_2" x1="-108.6" y1="-12" x2="159.828" y2="82.5041" gradientUnits="userSpaceOnUse">
<stop stop-color="#FCFF82"/>
<stop offset="0.494792" stop-color="#EF7575"/>
<stop offset="1" stop-color="#A8377B"/>
</linearGradient>
</defs>
</svg>
