<svg width="256" height="256" viewBox="0 0 24 24" fill="none" xmlns="http://www.w3.org/2000/svg" stroke="#f3d400"><g stroke-width="2" stroke-linecap="round" stroke-linejoin="round"><path d="m13.6 21.076 5.46-3.152c.584-.337.875-.505 1.087-.74a2 2 0 0 0 .416-.72c.097-.301.097-.637.097-1.307V8.843c0-.67 0-1.006-.098-1.307a2 2 0 0 0-.416-.72c-.21-.234-.5-.402-1.079-.736L13.6 2.924c-.583-.337-.874-.505-1.184-.57a2 2 0 0 0-.832 0c-.31.065-.601.233-1.184.57L4.938 6.077c-.582.336-.873.504-1.084.739a2 2 0 0 0-.416.72c-.098.302-.098.638-.098 1.311v6.305c0 .673 0 1.01.098 1.311a2 2 0 0 0 .416.72c.211.236.503.404 1.085.74l5.46 3.153c.584.337.875.505 1.185.57.274.059.558.059.832 0 .31-.065.602-.233 1.185-.57z"/><path d="M9 12a3 3 0 1 0 6 0 3 3 0 0 0-6 0z"/></g></svg>